# xmcd CD database file
#
# Track frame offsets:
#	150
#	17397
#	35422
#	51892
#	68220
#	87810
#	111487
#	128458
#	147386
#
# Disc length: 2373 seconds
#
# Revision: 0
# Processed by: cddbd v1.5.2PL0 Copyright (c) Steve Scherf et al.
# Submitted via: CDex 1.70beta2
#
DISCID=73094309
DTITLE=John Mayall - No More Interviews
DYEAR=1979
DGENRE=Blues
TTITLE0=(It's) Hard Going Up
TTITLE1=A Bigger Slice Of Pie
TTITLE2=Falling
TTITLE3=Take Me Home Tonight
TTITLE4=Sweet Honey Bee
TTITLE5=Stars In The Night
TTITLE6=Consideration
TTITLE7=Gypsy Lady
TTITLE8=Wild New Lover
EXTD=YEAR: 1979
EXTT0=
EXTT1=
EXTT2=
EXTT3=
EXTT4=
EXTT5=
EXTT6=
EXTT7=
EXTT8=
PLAYORDER=
